# xmcd
#
# Track frame offsets:
#	183
#	14335
#	29930
#	43870
#	54875
#	81083
#	96920
#	117308
#	134828
#	146943
#	158268
#	172835
#	188740
#
# Disc length: 2717 seconds
#
# Revision: 3
# Processed by: cddbd v1.4PL0 Copyright (c) Steve Scherf et al.
# Submitted via: audiograbber 1.81.03
#
DISCID=b10a9b0d
DTITLE=Lars Lilholt - I en sommernat
DYEAR=1988
DGENRE=Folk-Rock
TTITLE0=Dansen går
TTITLE1=I en sommernat
TTITLE2=Der løber en hest
TTITLE3=Der står et træ 
TTITLE4=Det du aldrig sagde
TTITLE5=Og det bliver sommer igen
TTITLE6=Ovre bag ved Egholm
TTITLE7=På en grøn oase
TTITLE8=Når båden lagde til
TTITLE9=Tænd for radion
TTITLE10=Ved den gamle gitterbro
TTITLE11=Fra et hul i himlen
TTITLE12=Der går et skib
EXTD=YEAR: 1988\n\nRecord number: Fanfare FANCD 8809\n
EXTT0=
EXTT1=
EXTT2=
EXTT3=
EXTT4=
EXTT5=
EXTT6=
EXTT7=
EXTT8=
EXTT9=
EXTT10=
EXTT11=
EXTT12=
PLAYORDER=
